# This file uses centimeters as units for non-parametric coordinates.

g default
v -25.499998 -0.154330 25.500002
v 0.000000 -0.154330 25.500002
v -25.499998 0.000000 0.000000
v 0.000000 0.000000 0.000000
v -25.499998 0.345667 25.500002
v 0.000000 0.345667 25.500002
v -25.499998 0.345667 0.000000
v 0.000000 0.345667 0.000000
vt 0.010000 0.347972
vt 0.652028 0.347972
vt 0.652028 0.990000
vt 0.010000 0.990000
vt 0.973248 0.077033
vt 0.331220 0.077033
vt 0.331220 0.064444
vt 0.973248 0.064444
vt 0.973248 0.056093
vt 0.331220 0.052207
vt 0.331220 0.043504
vt 0.973248 0.043504
vt 0.969060 0.347972
vt 0.969060 0.990000
vt 0.960357 0.990000
vt 0.960357 0.347972
vt 0.906542 0.347972
vt 0.910427 0.990000
vt 0.897839 0.990000
vt 0.897839 0.347972
vn 0.000000 1.000000 0.000000
vn 0.000000 1.000000 0.000000
vn 0.000000 1.000000 0.000000
vn 0.000000 1.000000 0.000000
vn 0.000000 0.000000 1.000000
vn 0.000000 0.000000 1.000000
vn 0.000000 0.000000 1.000000
vn 0.000000 0.000000 1.000000
vn 1.000000 0.000000 0.000000
vn 1.000000 0.000000 0.000000
vn 1.000000 0.000000 0.000000
vn 1.000000 0.000000 0.000000
vn 0.000000 0.000000 -1.000000
vn 0.000000 0.000000 -1.000000
vn 0.000000 0.000000 -1.000000
vn 0.000000 0.000000 -1.000000
vn -1.000000 0.000000 0.000000
vn -1.000000 0.000000 0.000000
vn -1.000000 0.000000 0.000000
vn -1.000000 0.000000 0.000000
s off
g Streets_BuildingBase
f 5/1/1 6/2/2 8/3/3 7/4/4
f 1/5/5 2/6/6 6/7/7 5/8/8
f 2/9/9 4/10/10 8/11/11 6/12/12
f 4/13/13 3/14/14 7/15/15 8/16/16
f 3/17/17 1/18/18 5/19/19 7/20/20
