# This file uses centimeters as units for non-parametric coordinates.

g default
v -9.750003 0.000000 8.750001
v -9.750003 0.117321 8.750001
v -9.750003 0.117321 9.750001
v -8.750001 0.000000 8.750001
v -8.750001 0.117321 8.750001
v -8.750001 0.117321 9.750001
v -8.750001 0.000000 9.750001
v -9.750003 0.117321 0.000000
v -9.749999 0.117321 1.000000
v -8.750001 0.000000 0.000000
v -8.750001 0.117321 0.000000
v -8.750001 0.117321 1.000000
v -8.750001 0.000000 1.000000
v -9.749999 0.000000 1.000000
v -9.750003 0.000000 0.000000
v 0.000000 0.000000 0.000000
v -9.750003 0.000000 9.750001
v 0.000000 0.000000 9.750001
v -0.000001 0.000000 1.000000
v -0.000001 0.117321 1.000000
v -0.000001 0.117321 0.000000
v -1.000001 0.000000 1.000000
v -1.000001 0.117321 1.000000
v -1.000001 0.117321 0.000000
v -1.000001 0.000000 0.000000
v -0.000001 0.117321 9.750001
v -0.000001 0.117321 8.750001
v -1.000001 0.000000 9.750001
v -1.000001 0.117321 9.750001
v -1.000001 0.117321 8.750001
v -1.000001 0.000000 8.750001
v -0.000001 0.000000 8.750001
vt 0.770128 0.139829
vt 0.770128 0.142783
vt 0.744951 0.142783
vt 0.744951 0.139829
vt 0.837137 0.150299
vt 0.837137 0.175477
vt 0.811959 0.175477
vt 0.811959 0.150299
vt 0.803632 0.173333
vt 0.803632 0.176287
vt 0.778455 0.176287
vt 0.778455 0.173333
vt 0.770128 0.150299
vt 0.770128 0.175477
vt 0.744951 0.175477
vt 0.744950 0.150299
vt 0.803632 0.129359
vt 0.803632 0.132313
vt 0.778455 0.132313
vt 0.778455 0.129359
vt 0.845464 0.142783
vt 0.845464 0.139829
vt 0.870641 0.139829
vt 0.870641 0.142783
vt 0.010000 0.339242
vt 0.010000 0.093761
vt 0.255481 0.093761
vt 0.255481 0.339242
vt 0.872735 0.118889
vt 0.872735 0.121843
vt 0.847557 0.121843
vt 0.847557 0.118889
vt 0.322009 0.110562
vt 0.296831 0.110562
vt 0.296831 0.085385
vt 0.322009 0.085385
vt 0.770128 0.129359
vt 0.770128 0.132313
vt 0.744950 0.132313
vt 0.744950 0.129359
vt 0.870641 0.175427
vt 0.845463 0.175427
vt 0.845463 0.150250
vt 0.870641 0.150250
vt 0.837137 0.129359
vt 0.837137 0.132313
vt 0.811959 0.132313
vt 0.811959 0.129359
vt 0.747044 0.121843
vt 0.747044 0.118889
vt 0.772222 0.118889
vt 0.772222 0.121843
vn 0.000000 0.000000 -1.000000
vn 0.000000 0.000000 -1.000000
vn 0.000000 0.000000 -1.000000
vn 0.000000 0.000000 -1.000000
vn 0.000000 1.000000 0.000000
vn 0.000000 1.000000 0.000000
vn 0.000000 1.000000 0.000000
vn 0.000000 1.000000 0.000000
vn 1.000000 0.000000 0.000000
vn 1.000000 0.000000 0.000000
vn 1.000000 0.000000 0.000000
vn 1.000000 0.000000 0.000000
vn 0.000000 1.000000 0.000000
vn 0.000000 1.000000 0.000000
vn 0.000000 1.000000 0.000000
vn 0.000000 1.000000 0.000000
vn 1.000000 0.000000 0.000000
vn 1.000000 0.000000 0.000000
vn 1.000000 0.000000 0.000000
vn 1.000000 0.000000 0.000000
vn 0.000000 0.000000 1.000000
vn 0.000000 0.000000 1.000000
vn 0.000000 0.000000 1.000000
vn 0.000000 0.000000 1.000000
vn 0.000000 1.000000 0.000000
vn 0.000000 1.000000 0.000000
vn 0.000000 1.000000 0.000000
vn 0.000000 1.000000 0.000000
vn 0.000000 0.000000 1.000000
vn 0.000000 0.000000 1.000000
vn 0.000000 0.000000 1.000000
vn 0.000000 0.000000 1.000000
vn 0.000000 1.000000 0.000000
vn 0.000000 1.000000 0.000000
vn 0.000000 1.000000 0.000000
vn 0.000000 1.000000 0.000000
vn -1.000000 0.000000 0.000000
vn -1.000000 0.000000 0.000000
vn -1.000000 0.000000 0.000000
vn -1.000000 0.000000 0.000000
vn 0.000000 1.000000 0.000000
vn 0.000000 1.000000 0.000000
vn 0.000000 1.000000 0.000000
vn 0.000000 1.000000 0.000000
vn -1.000000 0.000000 0.000000
vn -1.000000 0.000000 0.000000
vn -1.000000 0.000000 0.000000
vn -1.000000 0.000000 0.000000
vn 0.000000 0.000000 -1.000000
vn 0.000000 0.000000 -1.000000
vn 0.000000 0.000000 -1.000000
vn 0.000000 0.000000 -1.000000
s off
g Streets_Crossection
f 1/1/1 2/2/2 5/3/3 4/4/4
f 2/5/5 3/6/6 6/7/7 5/8/8
f 4/9/9 5/10/10 6/11/11 7/12/12
f 8/13/13 9/14/14 12/15/15 11/16/16
f 10/17/17 11/18/18 12/19/19 13/20/20
f 13/21/21 12/22/22 9/23/23 14/24/24
f 16/25/25 15/26/26 17/27/27 18/28/28
f 19/29/29 20/30/30 23/31/31 22/32/32
f 20/33/33 21/34/34 24/35/35 23/36/36
f 22/37/37 23/38/38 24/39/39 25/40/40
f 26/41/41 27/42/42 30/43/43 29/44/44
f 28/45/45 29/46/46 30/47/47 31/48/48
f 31/49/49 30/50/50 27/51/51 32/52/52
